HIERARCHY
ROOT Hips
{
	OFFSET -14.64140 90.27770 -84.91600
	CHANNELS 6 Xposition Yposition Zposition Zrotation Xrotation Yrotation
	JOINT Spine
	{
		OFFSET 0.00000 13.20850 -1.60436
		CHANNELS 3 Zrotation Xrotation Yrotation
		JOINT Spine1
		{
			OFFSET 0.00000 8.61716 0.00000
			CHANNELS 3 Zrotation Xrotation Yrotation
			JOINT Spine2
			{
				OFFSET 0.00000 8.61717 0.00000
				CHANNELS 3 Zrotation Xrotation Yrotation
				JOINT Spine3
				{
					OFFSET 0.00000 8.61717 0.00000
					CHANNELS 3 Zrotation Xrotation Yrotation
					JOINT Neck
					{
						OFFSET 0.00000 11.07920 1.10792
						CHANNELS 3 Zrotation Xrotation Yrotation
						JOINT Neck1
						{
							OFFSET 0.00000 7.08032 0.00000
							CHANNELS 3 Zrotation Xrotation Yrotation
							JOINT Head
							{
								OFFSET 0.00000 7.08031 0.00000
								CHANNELS 3 Zrotation Xrotation Yrotation
								End site
								{
									OFFSET 0.00000 0.00000 0.00000
								}
							}
						}
					}
					JOINT RightShoulder
					{
						OFFSET -0.01000 7.91373 5.19711
						CHANNELS 3 Zrotation Xrotation Yrotation
						JOINT RightArm
						{
							OFFSET -18.41580 0.00000 0.00000
							CHANNELS 3 Zrotation Xrotation Yrotation
							JOINT RightForeArm
							{
								OFFSET -29.11090 0.00000 0.00000
								CHANNELS 3 Zrotation Xrotation Yrotation
								JOINT RightHand
								{
									OFFSET -24.65040 0.00000 0.00000
									CHANNELS 3 Zrotation Xrotation Yrotation
									JOINT RightHandThumb1
									{
										OFFSET -5.35114 -0.85590 3.97906
										CHANNELS 3 Zrotation Xrotation Yrotation
										JOINT RightHandThumb2
										{
											OFFSET -4.52789 0.00000 0.00000
											CHANNELS 3 Zrotation Xrotation Yrotation
											JOINT RightHandThumb3
											{
												OFFSET -2.46976 0.00000 0.00000
												CHANNELS 3 Zrotation Xrotation Yrotation
												End site
												{
													OFFSET 0.00000 0.00000 0.00000
												}
											}
										}
									}
									JOINT RightHandIndex1
									{
										OFFSET -14.26970 0.00000 2.88139
										CHANNELS 3 Zrotation Xrotation Yrotation
										JOINT RightHandIndex2
										{
											OFFSET -5.48836 0.00000 0.00000
											CHANNELS 3 Zrotation Xrotation Yrotation
											JOINT RightHandIndex3
											{
												OFFSET -3.01859 0.00000 0.00000
												CHANNELS 3 Zrotation Xrotation Yrotation
												End site
												{
													OFFSET 0.00000 0.00000 0.00000
												}
											}
										}
									}
									JOINT RightHandMiddle1
									{
										OFFSET -14.26970 0.00000 -0.09147
										CHANNELS 3 Zrotation Xrotation Yrotation
										JOINT RightHandMiddle2
										{
											OFFSET -6.17441 0.00000 0.00000
											CHANNELS 3 Zrotation Xrotation Yrotation
											JOINT RightHandMiddle3
											{
												OFFSET -3.56743 0.00000 0.00000
												CHANNELS 3 Zrotation Xrotation Yrotation
												End site
												{
													OFFSET 0.00000 0.00000 0.00000
												}
											}
										}
									}
									JOINT RightHandRing1
									{
										OFFSET -12.69180 0.00000 -3.06433
										CHANNELS 3 Zrotation Xrotation Yrotation
										JOINT RightHandRing2
										{
											OFFSET -5.62556 0.00000 0.00000
											CHANNELS 3 Zrotation Xrotation Yrotation
											JOINT RightHandRing3
											{
												OFFSET -3.56744 0.00000 0.00000
												CHANNELS 3 Zrotation Xrotation Yrotation
												End site
												{
													OFFSET 0.00000 0.00000 0.00000
												}
											}
										}
									}
									JOINT RightHandPinky1
									{
										OFFSET -11.11390 0.00000 -6.03719
										CHANNELS 3 Zrotation Xrotation Yrotation
										JOINT RightHandPinky2
										{
											OFFSET -4.52789 0.00000 0.00000
											CHANNELS 3 Zrotation Xrotation Yrotation
											JOINT RightHandPinky3
											{
												OFFSET -2.46976 0.00000 0.00000
												CHANNELS 3 Zrotation Xrotation Yrotation
												End site
												{
													OFFSET 0.00000 0.00000 0.00000
												}
											}
										}
									}
								}
							}
						}
					}
					JOINT LeftShoulder
					{
						OFFSET 0.01000 7.91373 5.19711
						CHANNELS 3 Zrotation Xrotation Yrotation
						JOINT LeftArm
						{
							OFFSET 18.41580 0.00000 0.00000
							CHANNELS 3 Zrotation Xrotation Yrotation
							JOINT LeftForeArm
							{
								OFFSET 29.11090 0.00000 0.00000
								CHANNELS 3 Zrotation Xrotation Yrotation
								JOINT LeftHand
								{
									OFFSET 24.65040 0.00000 0.00000
									CHANNELS 3 Zrotation Xrotation Yrotation
									JOINT LeftHandThumb1
									{
										OFFSET 5.35114 -0.85590 3.97906
										CHANNELS 3 Zrotation Xrotation Yrotation
										JOINT LeftHandThumb2
										{
											OFFSET 4.52789 0.00000 0.00000
											CHANNELS 3 Zrotation Xrotation Yrotation
											JOINT LeftHandThumb3
											{
												OFFSET 2.46977 0.00000 0.00000
												CHANNELS 3 Zrotation Xrotation Yrotation
												End site
												{
													OFFSET 0.00000 0.00000 0.00000
												}
											}
										}
									}
									JOINT LeftHandIndex1
									{
										OFFSET 14.26970 0.00000 2.88139
										CHANNELS 3 Zrotation Xrotation Yrotation
										JOINT LeftHandIndex2
										{
											OFFSET 5.48836 0.00000 0.00000
											CHANNELS 3 Zrotation Xrotation Yrotation
											JOINT LeftHandIndex3
											{
												OFFSET 3.01859 0.00000 0.00000
												CHANNELS 3 Zrotation Xrotation Yrotation
												End site
												{
													OFFSET 0.00000 0.00000 0.00000
												}
											}
										}
									}
									JOINT LeftHandMiddle1
									{
										OFFSET 14.26970 0.00000 -0.09147
										CHANNELS 3 Zrotation Xrotation Yrotation
										JOINT LeftHandMiddle2
										{
											OFFSET 6.17440 0.00000 0.00000
											CHANNELS 3 Zrotation Xrotation Yrotation
											JOINT LeftHandMiddle3
											{
												OFFSET 3.56744 0.00000 0.00000
												CHANNELS 3 Zrotation Xrotation Yrotation
												End site
												{
													OFFSET 0.00000 0.00000 0.00000
												}
											}
										}
									}
									JOINT LeftHandRing1
									{
										OFFSET 12.69180 0.00000 -3.06433
										CHANNELS 3 Zrotation Xrotation Yrotation
										JOINT LeftHandRing2
										{
											OFFSET 5.62556 0.00000 0.00000
											CHANNELS 3 Zrotation Xrotation Yrotation
											JOINT LeftHandRing3
											{
												OFFSET 3.56744 0.00000 0.00000
												CHANNELS 3 Zrotation Xrotation Yrotation
												End site
												{
													OFFSET 0.00000 0.00000 0.00000
												}
											}
										}
									}
									JOINT LeftHandPinky1
									{
										OFFSET 11.11390 0.00000 -6.03719
										CHANNELS 3 Zrotation Xrotation Yrotation
										JOINT LeftHandPinky2
										{
											OFFSET 4.52789 0.00000 0.00000
											CHANNELS 3 Zrotation Xrotation Yrotation
											JOINT LeftHandPinky3
											{
												OFFSET 2.46976 0.00000 0.00000
												CHANNELS 3 Zrotation Xrotation Yrotation
												End site
												{
													OFFSET 0.00000 0.00000 0.00000
												}
											}
										}
									}
								}
							}
						}
					}
					JOINT pCube4
					{
						OFFSET 0.00000 10.91090 1.10792
						CHANNELS 3 Zrotation Xrotation Yrotation
						End site
						{
							OFFSET 0.00000 0.00000 0.00000
						}
					}
				}
			}
		}
	}
	JOINT RightUpLeg
	{
		OFFSET -9.98441 0.00000 0.00000
		CHANNELS 3 Zrotation Xrotation Yrotation
		JOINT RightLeg
		{
			OFFSET 0.00000 -42.11790 0.00000
			CHANNELS 3 Zrotation Xrotation Yrotation
			JOINT RightFoot
			{
				OFFSET 0.00000 -45.00020 -0.00001
				CHANNELS 3 Zrotation Xrotation Yrotation
				JOINT RightForeFoot
				{
					OFFSET 0.00000 -3.74820 0.00000
					CHANNELS 3 Zrotation Xrotation Yrotation
					JOINT RightToeBase
					{
						OFFSET 0.00000 0.06325 14.43120
						CHANNELS 3 Zrotation Xrotation Yrotation
						End site
						{
							OFFSET 0.00000 0.00000 0.00000
						}
					}
				}
			}
		}
	}
	JOINT LeftUpLeg
	{
		OFFSET 9.98441 0.00000 0.00000
		CHANNELS 3 Zrotation Xrotation Yrotation
		JOINT LeftLeg
		{
			OFFSET 0.00000 -42.11800 0.00000
			CHANNELS 3 Zrotation Xrotation Yrotation
			JOINT LeftFoot
			{
				OFFSET 0.00000 -45.00070 0.00000
				CHANNELS 3 Zrotation Xrotation Yrotation
				JOINT LeftForeFoot
				{
					OFFSET 0.00000 -3.74824 0.00000
					CHANNELS 3 Zrotation Xrotation Yrotation
					JOINT LeftToeBase
					{
						OFFSET 0.00000 0.06325 14.43110
						CHANNELS 3 Zrotation Xrotation Yrotation
						End site
						{
							OFFSET 0.00000 0.00000 0.00000
						}
					}
				}
			}
		}
	}
}
MOTION
Frames: 4
Frame Time: 0.050000
0.03544973544803181 -0.0035119501875107715 0.013812605721969573 0.038557480546905915 0.033512634992701594 -0.009730461664218025 5.761480382171182 2.0287700500311896 -2.4387687046246995 -0.6975424749272537 3.4920958474088715 0.39077505168648063 -0.534036111918895 -1.5114184062845146 0.3658983714018752 -0.6854944174491598 -0.5749136477409926 -0.32216637775469703 -0.4124003862718575 15.093266026544615 -0.2780227137251544 0.46943952034241593 0.8210614049671286 0.9730356542676234 0.4383133426915981 -14.972643085243154 0.059712595653744746 -12.9286470972099 4.1545848134635515 -18.271754323583874 81.03194389501151 -6.68916627654557 22.009481680339817 33.983225206834035 12.361623219906612 95.0287588700289 14.45969410888199 -0.5603078736133563 -6.301741933648284 4.557195183695244 -0.12393368100211564 -1.6079313294103215 -0.02012980748232364 -0.020148818424333352 -56.238750344790056 0.014284798603935845 0.02802053412320218 -56.18639701028399 -38.79759938650154 -0.02251813509034342 -0.005190073465413751 0.03746716423993777 -0.016360353022563404 -0.030069761237804516 -0.015792203874512495 0.023559358391228812 0.047743972580077385 -36.709657297981174 -0.037016814164484546 -0.01918664774371763 -0.014866423454507883 -0.011955500812444253 -0.009984589176723888 -0.008187910958569846 -0.04948777341732602 0.041607981730446914 -19.726125988862208 -0.0019542707462036775 0.047563346616014975 -0.04584003273197457 -0.04627174869108986 -0.04234600052588909 0.01776185966721528 -0.030003697710432986 -0.039191295849701255 24.074852762641196 -0.016179843124323523 0.013323313468881534 28.876245952615914 0.0050112363298005 0.032368274692683635 28.85707697706812 -0.018958878408731686 0.04882234149523612 14.51620164749905 3.1511679591686907 15.175898683931 -71.70481655399902 6.6756233618086736 -29.904694212759825 -39.684238607491125 16.73798846574116 -92.29253708734548 -24.63610864388776 -7.75806588497138 4.927344726389101 -0.5098395165272607 0.029864545305305606 -8.11750860601934 0.002097415053999413 0.014147417000725823 44.53832285270187 -0.025483054905201762 -0.017817716327214638 44.605989651411434 12.476363856410762 0.012295238760360852 0.011575499519056032 0.008871211999159702 0.023848067572652367 -0.02000289329535938 -0.04508125122941615 0.005757161357562713 0.03155647539691372 11.06601856099812 -0.032153980344638 -0.009004265073118415 -0.020761971037720674 0.037869836428880185 0.015800040817106075 0.008791583554630375 -0.003094045331256733 0.023783194333988136 4.786332432752019 -0.04786077647263961 -0.006013244592477541 -0.027582045189764696 -0.039300997235921675 -0.04596289817145606 0.02625065423030369 0.011418937486898815 0.012649214864851257 -5.633475052392528 -0.028071966969090076 -0.0455488896911091 -6.7258300746387825 -0.019289233167863375 -0.02002138306419127 -6.691331803212933 0.0025182548234039246 0.03884206577152226 0.015324766851882686 -0.045888626840627056 -0.045318172675603355 8.030468921539445 3.525316843065028 -19.23184593193581 -0.02591495178998541 10.361956148973036 0.018029118447654105 -5.6346424529454735 -15.67406641579274 3.240678038202088 -0.044560005721737836 -0.003305788270410306 -0.03210239133334481 0.016020226811252387 4.738008806715074 0.029140407359922654 12.42314068128343 -8.200391982412913 6.843784507968167 0.04572413461914714 46.40214400328371 0.0017759855594133476 -4.307471040242831 -14.743788004842996 -3.880648340154724 0.03559361236571185 -0.004764910579256241 -0.012100975883612784 -0.04955643275068815 -10.751268083309514 -0.011604593987520152 
0.015733059572488755 0.04621582954455176 0.00871385364244807 -0.02475016567851935 -0.036892640997310544 0.023527115970157695 5.825259600945462 2.0275702460696956 -2.3920313620804765 -0.6495713668234903 3.476824537182693 0.39713041552523237 -0.5337445717097974 -1.5100824690664725 0.3211804344188991 -0.6998314576990378 -0.5926966990693961 -0.2561070123004298 -0.3887662896477163 15.084820468185468 -0.25041908437248944 0.41174592927899273 0.8371198412377131 0.9955650622710448 0.45809527336323796 -14.998383091199111 0.09581931040963691 -12.926358739963979 4.190478983256352 -18.170427533750424 81.65356446611223 -5.257011316062098 22.451281755550184 35.6236855328504 12.30558732901291 95.586266556008 15.147279267143517 -0.5823212932694629 -6.996537866527328 4.547545634285458 -0.08861478369480938 -1.628632218373031 -0.0195001593282621 -0.015352834892418645 -56.218784839103904 0.011625961726700385 0.04880477872626466 -56.27477075289336 -38.78447300832425 -0.009146236567780219 -0.047340316482564815 0.02784066050701524 0.03269844146521531 -0.02517755078620228 0.04398793468772583 0.014495728346893564 0.042628895805183586 -36.658705226278634 0.01671863157117583 -0.026146332509522235 0.025050628008876308 -0.023031542175123248 -0.006835025332598097 -0.0361870867224498 0.016671335140475446 -0.013094153825329151 -19.760315259266523 -0.005004979745019614 0.005946078098458442 0.030760939829723874 0.0352923496288846 0.026830426763050304 -0.01253395942483265 0.02927296767023788 -0.03970009961693797 24.09299306971688 -0.046665643387874246 -0.042619738747442966 28.86677940529014 -0.004690799921090008 -0.03984314460747416 28.868035800505528 0.005379516023833521 0.02473853485030626 14.555916501939064 3.2104013367777755 15.106498435700287 -72.04594323351077 7.730113783317175 -30.153219380817703 -40.3863668833049 16.666158060444058 -92.1021570792045 -25.832683960225932 -8.865633512000619 6.00279025009163 -0.4950179510931829 0.04681184775108308 -8.089639915234354 -0.037351241636110956 0.001640400750916598 44.58440847349457 -0.03202326968552591 0.02954699296980572 44.576357006441846 12.507089200574049 0.04944564154539286 -0.008032713492810258 -0.04218774422238262 -0.02777478271919421 0.0029617363070964706 0.005002274008421422 -0.005284620840494457 -0.004256228796315528 11.128302799777602 -0.00048700980991290193 -0.047653024212989975 0.03664891907915358 0.027992848012742762 0.02433669502836419 -0.04972960818257281 -0.007951531649455178 -0.03981926691721319 4.723694442419419 -0.016313279522420777 -0.004447490422992587 0.0006681950409744062 -0.04014864598789553 0.02544298627088194 0.03273712439781206 0.04174420364674895 -0.011306935055621812 -5.59327290278296 0.02221057463006701 0.042125665479622154 -6.691677867940742 -0.029869024562047177 -0.018375717173270457 -6.7657225737435835 0.0030894862099491707 0.03434404692179711 0.03315373439014415 0.041425771282992956 0.016804007067990505 8.084495156978285 3.453673555329479 -19.176039887716215 -0.009272871983819432 10.439999193216392 0.00815072748725185 -5.63953632751584 -15.649263626675614 3.2334537225259905 0.03495315383617872 -0.0017468244756465635 0.030349395612721975 0.023645433595725934 4.726645708938639 0.005086798958883305 12.45731993946832 -8.22659589259731 6.885582092025695 -0.04200500169658825 46.39496446126565 0.009657233797064423 -4.308813278099713 -14.755500985636704 -3.8551668310453997 -0.04210566443037938 -0.016226079080770648 -0.03016502844868317 -0.010639831923665402 -10.697211308325812 -0.0177105494303994 
-0.004349713812828044 0.04620959715787405 0.00764722574647759 0.03929155266297356 0.01654384479070922 -0.025019483532820897 5.880543153927462 1.9455437495211378 -2.4471479227992914 -0.7156014720999219 3.4740498879068182 0.3728451042462391 -0.44079802826228753 -1.5584209393643074 0.3043261339417009 -0.6993233246156577 -0.5203696772462142 -0.3197013301762272 -0.3834584732987068 15.043618196623866 -0.26302608521237164 0.41044350635754107 0.7805919523399844 0.9929339648131693 0.4016023116726232 -15.031684881197508 0.030485361949745264 -12.791347658095278 4.104497015734767 -18.015048757275764 82.00964696981306 -3.103936798562222 22.403547812628524 36.71361677434111 12.093576367952405 95.7658735440716 15.733453149112716 -0.5957039174594386 -7.532308491203053 4.509048237108978 -0.1008102008938074 -1.5683727196370691 0.0008583761626011296 0.023788037448704082 -56.198813829908026 -0.005988507903988585 -0.017857321688398597 -56.20946546168649 -38.757901259929035 -0.007376293697988978 0.012083808542053095 -0.024387582410990104 -0.027165434007647742 0.015307810588203326 0.01714367680130907 0.04431118188954301 -0.047275992063026843 -36.644914066003125 0.036030588823258665 -0.04878875754108587 -0.04827718090060146 -0.04100050543463362 -0.022701901384573054 -0.03656788843509613 -0.041097824864201535 -0.036299044739251565 -19.749477805348707 -0.03289937859492948 -0.012787570584257637 0.004966174069025616 -0.045258073999252954 0.007864160544862879 0.01775891030347873 -0.036901873088698474 -0.013617140015907211 24.017466285996495 0.04932395493624445 0.019273172645039416 28.82231298743125 0.008108116159532911 -0.021829864392421978 28.857989727493326 -0.005613568600091495 0.00996329020281687 14.533711464285618 3.162401034825151 14.991778928280288 -72.24635680760237 9.335212157641994 -30.278156812980903 -40.61794978285064 16.396431966527174 -91.61247711403973 -26.78508227138139 -9.812485208703087 7.036899560118815 -0.49628445255262243 0.04941727236245419 -8.123222708901093 0.037402447584301474 0.018415770304632144 44.58926389306293 -0.014223289426969843 -0.01250999325680237 44.61036738394422 12.439347611291172 0.021470486035628004 -0.028172695814761603 -0.0011549955094926397 0.01352822739589597 -0.017867331088942957 -0.026226630600940805 -0.035833301957083806 -0.005592683604460893 11.080659368373285 -0.032428197089558304 -0.007357679900174894 -0.0402656074053132 -0.0470466346510888 0.026396574908643666 -0.021837939306892748 0.04452881316434306 -0.02151087890481448 4.741874202196559 0.01572832920965641 -0.010020204291548877 0.041685426481823266 0.028419738669393593 0.0200035064631284 -0.0037830389538328984 0.0025905132629086363 0.037234966440258206 -5.618867585339517 -0.0014879778846224876 0.001217682464620857 -6.719188819630712 0.03628627799630282 0.035940972254074076 -6.755285720256612 -0.04925076247479634 0.01565259409545272 -0.04445979651087376 0.0015309001983321478 -0.03973648057139649 8.049606545077848 3.495717237132352 -19.201119638757547 0.004159222779638053 10.43976850012865 -0.03418512431778867 -5.632397459337259 -15.703182516206537 3.186990962437194 -0.02208916253514265 -0.025314458286212205 0.0345289121291793 -0.0012697689655934814 4.742978045978902 -0.02669747994018876 12.461628713303408 -8.28477052705791 6.931006520683426 0.012728821890059833 46.40434552731622 0.010714412580045565 -4.287277363434686 -14.742929035513615 -3.8293555804547186 0.03071518855469538 0.047806974516777165 -0.0023672614268707144 0.02005590156257816 -10.76624024363803 0.019157573101527867 
-0.024356305995675454 0.007735805266161944 -0.015071326204994809 -0.02427789950409014 -0.039917332449475304 0.047256595772129956 5.9316144079536866 1.9926406446599063 -2.452089743103296 -0.6431208892398471 3.422828823103776 0.34331949118686605 -0.44866501937820485 -1.5108436635916587 0.2848087989677747 -0.6773496081807517 -0.5328636580957317 -0.26232315544689355 -0.4572381239603573 14.949281732178877 -0.2811888587369213 0.41079488180503904 0.7979642297741533 0.9122064900702944 0.4365339515787675 -15.108003227550062 0.025320337659919624 -12.661864957338414 4.16667712591293 -17.89720555250317 82.30215517976619 -1.455036705942295 22.14316388329978 37.4601698796969 11.832816832804228 95.71696627489074 16.291566443038366 -0.6006133011132685 -8.024809468476274 4.526078931206976 -0.10934139926215874 -1.5930748187174257 0.026047622887113642 0.036217706398120886 -56.18867187579722 0.009630384383439338 0.03294705173464342 -56.20326813743046 -38.72130385302551 -0.010406778794958996 0.007414519383041652 -0.012501150419626553 0.013426331761038019 -0.0051191693137621775 -0.0002953338777661209 0.014693156240198194 -0.008941909078474775 -36.65526162380835 -0.022372498296536286 -0.010417198655875117 0.017861283837221652 0.010541687974233879 -0.029181622046474835 0.04204506715041172 -0.006757414569635438 0.020713037758623033 -19.75313042262405 -0.0455006941284217 -0.011881227387963003 0.030168395398694814 0.0312784914785686 0.027947615370010115 0.03307974760066029 0.002042716972397341 0.02489613388228968 24.022548552272678 0.020179488106731997 0.02265786662290999 28.863044297226402 -0.04629763430894434 -0.009353792193977311 28.872882263059466 0.012675681817362316 0.004983333826294998 14.414737514688888 3.2247079653862474 14.829105811782206 -72.32609176542202 10.526529037934251 -30.596669642766447 -41.45263707217496 16.124888412772346 -91.5549774413803 -27.613937725886018 -10.457543480671776 7.732243420975794 -0.4596243184987244 0.09212660070479588 -8.135469831882812 0.028637609753058735 0.01428275558845083 44.61600151135153 -0.009736431603924805 -0.028272043796585412 44.58529031587815 12.506762920346256 0.04925416171245038 -0.038112433851128856 0.03193468183477469 0.013835905240830948 -0.03968810714972418 0.013495866320139195 -0.03108918596821115 -0.002867722366413893 11.117750625991475 -0.01583257448406665 0.0012106980213998416 -0.04832976133015915 0.026986111138115637 0.04288869020251983 -0.0006810235066999078 -0.028954693139686818 0.013358640759587141 4.797543321207951 0.017390144357383397 0.010893808990194053 0.03198229950461367 0.016956085856718955 -0.03265486231178731 0.02429113367420961 -0.04069065177258441 0.03013925309111106 -5.551033433342082 0.03327293872749399 0.031491614554056475 -6.76012354893922 0.038303220746583114 0.040880566526166756 -6.7167343244193605 0.018356613607742003 -0.002730311284780006 0.03531322352790556 0.004932565226360884 0.044943069627161485 8.040283288580532 3.4484811495366263 -19.225145024888718 -0.017006030146639463 10.352564020369025 0.025457435990424777 -5.573883666068113 -15.622266384344956 3.176879983672784 0.03008941053130512 -0.008692641504492555 0.004224531622150725 0.014219249063209882 4.67969673038858 0.020192277869865546 12.46594989265643 -8.220408881294398 6.900813742061033 0.02918653396482685 46.394235026754544 -0.004055390857687284 -4.344345517416191 -14.707564903294836 -3.821788305760319 0.04783314938203435 -0.03833754333025507 0.02159289903901903 -0.00826548020317682 -10.768305573008838 -0.006578368274412264 
